<svg id="svg" version="1.1" width="400" height="400" xmlns="http://www.w3.org/2000/svg" xmlns:xlink="http://www.w3.org/1999/xlink" style="display: block;"><g id="svgg"><path id="path0" d="" stroke="none" fill="#000000" fill-rule="evenodd"></path><path id="path1" d="" stroke="none" fill="#333333" fill-rule="evenodd"></path><path id="path2" d="M194.678 36.860 C 191.980 36.920,189.055 37.050,188.178 37.148 C 187.301 37.245,185.533 37.406,184.250 37.505 C 182.967 37.604,181.804 37.717,181.667 37.757 C 181.529 37.796,180.442 37.944,179.250 38.085 C 178.058 38.226,176.408 38.448,175.583 38.579 C 174.758 38.709,173.333 38.934,172.417 39.079 C 171.500 39.224,170.630 39.379,170.483 39.424 C 170.336 39.470,169.623 39.617,168.899 39.751 C 167.462 40.017,165.034 40.521,163.333 40.907 C 160.625 41.521,152.698 43.662,151.917 43.990 C 151.733 44.067,150.271 44.553,148.667 45.070 C 147.063 45.586,145.487 46.110,145.167 46.233 C 144.846 46.357,144.171 46.613,143.667 46.803 C 140.010 48.179,135.758 49.924,133.282 51.063 C 132.760 51.303,131.902 51.696,131.375 51.937 C 130.118 52.509,125.587 54.772,124.000 55.619 C 121.533 56.937,120.407 57.556,119.833 57.913 C 119.513 58.112,119.138 58.324,119.000 58.384 C 118.862 58.444,118.450 58.680,118.083 58.909 C 117.717 59.138,117.192 59.450,116.917 59.602 C 115.337 60.480,109.138 64.484,106.917 66.061 C 105.382 67.151,100.773 70.552,100.667 70.673 C 100.621 70.725,99.833 71.360,98.917 72.085 C 96.874 73.700,97.054 73.555,96.250 74.225 C 91.640 78.069,86.146 83.218,82.250 87.347 C 79.346 90.425,78.809 91.020,76.397 93.833 C 73.694 96.985,69.963 101.714,68.500 103.841 C 68.362 104.041,68.000 104.537,67.695 104.944 C 65.572 107.767,58.337 119.220,57.866 120.500 C 57.816 120.638,57.593 121.041,57.371 121.397 C 56.916 122.128,52.879 130.103,52.510 131.000 C 52.379 131.321,51.981 132.221,51.626 133.000 C 51.271 133.779,50.881 134.642,50.758 134.917 C 50.513 135.468,49.453 138.035,49.038 139.083 C 48.893 139.450,48.646 140.050,48.490 140.417 C 48.109 141.308,46.993 144.375,46.338 146.333 C 46.047 147.204,45.745 148.067,45.667 148.250 C 45.538 148.557,44.715 151.190,44.001 153.583 C 42.649 158.118,41.662 162.119,40.672 167.083 C 40.398 168.458,40.098 169.958,40.004 170.417 C 38.614 177.254,37.358 190.269,37.337 198.042 L 37.333 199.333 45.307 199.333 L 53.281 199.333 53.394 195.125 C 53.456 192.810,53.583 190.129,53.676 189.167 C 53.769 188.204,53.956 186.179,54.091 184.667 C 54.314 182.173,54.453 181.022,54.990 177.194 C 55.605 172.803,57.455 164.135,58.588 160.333 C 58.738 159.829,58.962 159.042,59.085 158.583 C 59.921 155.465,62.190 148.847,63.713 145.083 C 64.281 143.680,64.987 141.978,65.165 141.583 C 65.248 141.400,65.479 140.875,65.680 140.417 C 68.816 133.246,74.021 123.815,78.142 117.833 C 79.372 116.049,82.062 112.264,82.246 112.060 C 82.340 111.956,82.567 111.660,82.750 111.402 C 83.049 110.983,84.350 109.314,84.883 108.667 C 84.996 108.529,85.313 108.119,85.586 107.755 C 85.860 107.392,86.196 106.973,86.333 106.826 C 86.674 106.459,87.266 105.758,88.154 104.667 C 88.564 104.162,88.978 103.666,89.075 103.564 C 89.171 103.461,89.737 102.826,90.333 102.151 C 94.777 97.118,99.781 92.304,106.667 86.437 C 110.594 83.091,123.024 74.333,123.846 74.333 C 123.931 74.333,124.000 74.258,124.000 74.167 C 124.000 74.075,124.074 74.000,124.163 74.000 C 124.253 74.000,124.722 73.749,125.205 73.442 C 126.043 72.910,126.595 72.592,128.667 71.450 C 131.517 69.880,135.055 68.066,137.277 67.035 C 140.762 65.419,141.438 65.123,144.083 64.057 C 145.550 63.466,146.900 62.913,147.083 62.828 C 147.669 62.556,150.180 61.658,152.500 60.891 C 153.737 60.483,154.900 60.081,155.083 59.999 C 155.267 59.916,155.679 59.778,156.000 59.692 C 156.321 59.606,157.783 59.184,159.250 58.755 C 163.440 57.529,167.758 56.490,171.733 55.752 C 172.456 55.617,173.170 55.469,173.317 55.422 C 173.465 55.375,174.373 55.220,175.335 55.077 C 176.296 54.934,177.796 54.705,178.667 54.568 C 194.730 52.039,214.358 52.765,231.083 56.507 C 231.817 56.671,232.679 56.855,233.000 56.916 C 233.321 56.977,233.808 57.095,234.083 57.178 C 234.358 57.261,235.371 57.521,236.333 57.755 C 237.296 57.989,238.421 58.282,238.833 58.406 C 239.246 58.529,240.033 58.758,240.583 58.914 C 241.133 59.070,241.883 59.298,242.250 59.421 C 242.617 59.543,243.892 59.953,245.083 60.331 C 246.275 60.710,247.400 61.082,247.583 61.160 C 247.767 61.237,248.404 61.470,249.000 61.676 C 251.178 62.432,254.587 63.759,256.250 64.500 C 256.433 64.582,256.940 64.803,257.375 64.991 C 260.217 66.220,261.128 66.646,264.787 68.452 C 268.184 70.128,273.035 72.797,275.250 74.207 C 275.983 74.674,276.808 75.191,277.083 75.356 C 277.358 75.521,279.008 76.604,280.750 77.763 C 284.208 80.063,285.421 80.942,290.000 84.468 C 290.981 85.223,295.670 89.155,297.081 90.404 C 298.514 91.675,306.002 99.108,307.503 100.750 C 308.005 101.301,308.829 102.232,309.333 102.820 C 309.837 103.407,310.326 103.970,310.419 104.069 C 310.511 104.169,311.177 104.962,311.897 105.833 C 312.618 106.704,313.367 107.605,313.562 107.836 C 313.757 108.066,314.138 108.554,314.408 108.919 C 314.678 109.284,314.942 109.621,314.994 109.667 C 315.173 109.825,318.789 114.755,319.640 116.000 C 320.109 116.688,320.551 117.325,320.622 117.417 C 320.777 117.617,321.999 119.473,323.036 121.083 C 323.769 122.222,325.115 124.474,326.972 127.667 C 327.832 129.147,331.901 137.104,332.554 138.583 C 333.512 140.755,335.667 145.862,335.668 145.963 C 335.668 146.029,335.765 146.271,335.883 146.500 C 336.002 146.729,336.272 147.442,336.484 148.083 C 336.696 148.725,336.968 149.475,337.088 149.750 C 337.400 150.465,339.074 155.476,339.594 157.250 C 341.248 162.891,342.314 167.252,343.178 171.917 C 343.845 175.516,344.000 176.441,344.239 178.253 C 344.373 179.263,344.524 180.333,344.577 180.629 C 345.116 183.688,345.835 194.424,345.834 199.395 C 345.833 204.012,345.117 214.733,344.591 218.000 C 344.540 218.321,344.389 219.371,344.256 220.333 C 343.638 224.821,342.144 232.399,341.250 235.583 C 341.122 236.042,340.855 237.017,340.658 237.750 C 339.105 243.529,336.254 251.796,334.334 256.083 C 333.836 257.195,333.500 257.992,333.500 258.059 C 333.500 258.349,329.196 267.161,328.156 269.000 C 324.549 275.381,321.100 280.903,318.721 284.109 C 318.370 284.581,317.971 285.132,317.833 285.334 C 317.066 286.459,313.614 290.938,312.568 292.167 C 312.172 292.632,309.201 296.093,308.419 297.000 C 305.446 300.450,299.067 306.664,294.504 310.554 C 293.448 311.455,292.396 312.359,292.167 312.563 C 291.338 313.300,287.310 316.363,284.890 318.096 C 278.153 322.921,271.783 326.778,264.724 330.308 C 261.973 331.684,259.678 332.731,255.667 334.441 C 255.346 334.577,254.933 334.755,254.750 334.835 C 254.450 334.966,252.476 335.725,249.750 336.757 C 248.575 337.202,243.795 338.786,242.000 339.326 C 241.313 339.532,240.412 339.804,240.000 339.930 C 238.274 340.455,234.640 341.368,231.667 342.024 C 226.172 343.234,223.218 343.729,216.000 344.648 C 215.313 344.736,213.963 344.857,213.000 344.918 C 212.037 344.979,211.063 345.062,210.833 345.101 C 210.091 345.231,204.312 345.489,202.042 345.495 L 199.833 345.500 199.833 354.093 L 199.833 362.685 202.208 362.595 C 203.515 362.545,205.971 362.461,207.667 362.407 C 209.362 362.354,211.012 362.277,211.333 362.235 C 211.654 362.194,213.192 362.049,214.750 361.913 C 223.388 361.159,233.246 359.467,240.833 357.434 C 241.338 357.299,242.313 357.043,243.000 356.865 C 247.220 355.771,256.656 352.650,259.283 351.478 C 259.667 351.307,260.031 351.167,260.091 351.167 C 260.151 351.167,260.436 351.059,260.725 350.928 C 261.014 350.797,262.000 350.379,262.917 350.000 C 264.527 349.334,264.986 349.138,266.417 348.506 C 266.783 348.343,267.383 348.079,267.750 347.918 C 269.025 347.358,275.093 344.347,276.667 343.493 C 279.653 341.873,280.073 341.637,282.326 340.315 C 284.877 338.816,284.585 338.995,287.157 337.353 C 292.318 334.057,295.832 331.584,300.417 328.023 C 301.425 327.239,302.287 326.557,302.333 326.507 C 302.379 326.458,303.317 325.670,304.417 324.757 C 312.218 318.284,320.705 309.634,327.070 301.667 C 328.627 299.718,331.522 295.924,332.030 295.167 C 332.184 294.938,332.684 294.225,333.142 293.583 C 336.169 289.343,340.476 282.494,342.626 278.503 C 344.098 275.769,347.699 268.556,348.493 266.750 C 348.977 265.650,349.509 264.450,349.675 264.083 C 350.214 262.894,351.018 260.947,351.535 259.583 C 351.813 258.850,352.188 257.875,352.369 257.417 C 352.549 256.958,352.800 256.283,352.925 255.917 C 353.050 255.550,353.424 254.500,353.754 253.583 C 354.085 252.667,354.432 251.654,354.526 251.333 C 354.619 251.012,354.908 250.112,355.167 249.333 C 355.427 248.554,355.801 247.354,355.999 246.667 C 356.196 245.979,356.426 245.229,356.510 245.000 C 356.593 244.771,356.769 244.133,356.901 243.583 C 357.033 243.033,357.292 242.058,357.477 241.415 C 358.148 239.077,359.543 232.805,360.182 229.250 C 360.264 228.792,360.407 228.042,360.500 227.583 C 360.805 226.075,361.560 220.489,361.920 217.083 C 362.056 215.800,362.202 214.487,362.245 214.167 C 362.903 209.295,362.897 190.577,362.237 185.117 C 362.195 184.769,362.049 183.419,361.913 182.117 C 361.515 178.307,360.875 173.800,360.265 170.500 C 360.138 169.813,359.952 168.800,359.852 168.250 C 359.673 167.265,359.076 164.453,358.596 162.333 C 358.461 161.737,358.078 160.200,357.744 158.917 C 357.409 157.633,357.067 156.301,356.984 155.957 C 356.119 152.408,352.648 142.095,351.408 139.391 C 351.275 139.103,351.167 138.814,351.167 138.750 C 351.167 138.686,351.059 138.397,350.928 138.109 C 350.797 137.820,350.379 136.833,350.000 135.917 C 349.621 135.000,349.156 133.912,348.966 133.500 C 348.777 133.087,348.492 132.450,348.332 132.083 C 347.434 130.025,344.952 124.964,343.795 122.833 C 340.292 116.380,337.733 112.198,333.969 106.771 C 331.385 103.046,331.339 102.980,330.646 102.083 C 330.292 101.625,329.946 101.175,329.877 101.083 C 324.918 94.550,320.129 89.113,314.250 83.339 C 312.692 81.809,310.973 80.150,310.432 79.653 C 309.890 79.156,309.287 78.600,309.091 78.417 C 308.392 77.762,307.207 76.731,305.740 75.500 C 304.920 74.813,304.212 74.207,304.167 74.154 C 304.053 74.021,299.353 70.316,297.735 69.083 C 296.145 67.871,293.358 65.883,291.663 64.750 C 290.978 64.292,290.342 63.857,290.250 63.783 C 290.158 63.710,289.633 63.364,289.083 63.015 C 288.533 62.666,287.558 62.044,286.917 61.633 C 285.688 60.847,284.539 60.148,283.525 59.570 C 283.191 59.379,282.012 58.692,280.907 58.044 C 276.933 55.715,266.250 50.333,265.600 50.333 C 265.558 50.333,265.049 50.117,264.470 49.854 C 263.891 49.590,262.029 48.828,260.333 48.161 C 258.637 47.493,257.025 46.853,256.750 46.737 C 256.006 46.424,248.443 43.915,247.000 43.503 C 246.313 43.306,245.412 43.042,245.000 42.917 C 242.618 42.191,237.771 40.994,234.583 40.343 C 233.758 40.175,232.333 39.882,231.417 39.691 C 230.500 39.501,229.000 39.226,228.083 39.081 C 227.167 38.935,225.742 38.709,224.917 38.579 C 215.768 37.135,206.339 36.599,194.678 36.860 M199.500 76.493 L 199.500 83.206 199.875 83.089 C 200.705 82.831,202.103 82.807,205.919 82.988 C 212.198 83.285,219.032 84.107,223.917 85.153 C 228.837 86.206,230.237 86.539,232.375 87.169 C 232.994 87.351,234.044 87.659,234.708 87.854 C 237.454 88.660,242.268 90.318,242.873 90.666 C 243.032 90.758,243.257 90.836,243.373 90.839 C 243.489 90.842,243.883 90.990,244.250 91.167 C 244.617 91.344,244.980 91.491,245.058 91.494 C 245.136 91.497,245.436 91.607,245.725 91.738 C 246.897 92.268,248.330 92.907,249.750 93.533 C 252.475 94.735,257.642 97.473,261.000 99.496 C 262.270 100.261,265.912 102.566,266.000 102.660 C 266.046 102.710,266.533 103.048,267.083 103.411 C 273.257 107.493,281.387 114.578,287.000 120.767 C 288.430 122.344,291.048 125.387,291.784 126.327 C 291.894 126.468,292.382 127.079,292.867 127.685 C 293.353 128.291,293.862 128.953,294.000 129.156 C 294.137 129.359,294.706 130.138,295.263 130.887 C 297.632 134.074,300.677 138.856,303.029 143.083 C 304.082 144.974,307.073 151.100,307.912 153.083 C 308.339 154.092,308.757 155.067,308.842 155.250 C 310.644 159.158,313.549 168.709,315.002 175.500 C 315.506 177.856,316.198 182.021,316.498 184.500 C 316.592 185.279,316.701 186.104,316.740 186.333 C 316.807 186.731,316.969 188.804,317.333 193.926 C 317.644 198.296,317.281 210.134,316.747 212.999 C 316.705 213.229,316.594 214.054,316.501 214.833 C 316.409 215.612,316.256 216.700,316.162 217.250 C 316.067 217.800,315.800 219.375,315.568 220.750 C 315.336 222.125,315.079 223.512,314.998 223.833 C 314.916 224.154,314.649 225.317,314.403 226.417 C 314.157 227.517,313.809 228.942,313.630 229.583 C 313.451 230.225,313.232 231.050,313.144 231.417 C 312.738 233.093,311.356 237.341,310.187 240.505 C 305.773 252.446,299.359 263.586,291.035 273.765 C 287.996 277.481,283.016 282.698,279.433 285.917 C 278.616 286.650,277.866 287.326,277.766 287.419 C 277.461 287.701,275.610 289.267,275.185 289.602 C 274.965 289.775,274.553 290.108,274.268 290.342 C 270.939 293.076,265.200 297.088,261.583 299.210 C 261.400 299.317,260.857 299.652,260.378 299.953 C 259.898 300.254,259.470 300.500,259.427 300.500 C 259.383 300.500,258.964 300.727,258.494 301.003 C 256.068 302.434,251.299 304.836,248.417 306.080 C 247.408 306.516,246.358 306.972,246.083 307.094 C 242.177 308.836,233.725 311.596,228.750 312.755 C 224.030 313.854,223.669 313.929,220.667 314.412 C 219.246 314.640,217.633 314.904,217.083 314.997 C 216.533 315.091,214.546 315.312,212.667 315.490 C 202.676 316.431,191.905 316.169,182.750 314.761 C 179.536 314.267,177.906 313.991,177.667 313.901 C 177.529 313.849,176.892 313.704,176.250 313.579 C 170.486 312.457,161.522 309.766,156.583 307.675 C 156.217 307.519,155.579 307.254,155.167 307.085 C 154.754 306.917,153.866 306.528,153.193 306.223 C 152.521 305.917,151.923 305.667,151.865 305.667 C 151.623 305.667,144.430 302.012,142.667 300.993 C 137.712 298.130,136.241 297.197,132.423 294.498 C 126.709 290.459,122.757 287.099,117.333 281.668 C 113.278 277.606,111.579 275.716,108.419 271.750 C 108.054 271.292,107.694 270.842,107.619 270.750 C 106.298 269.126,100.500 260.717,100.500 260.425 C 100.500 260.362,100.286 259.997,100.024 259.613 C 97.919 256.533,93.576 247.723,91.504 242.333 C 91.205 241.554,90.864 240.692,90.746 240.417 C 90.447 239.719,88.771 234.678,88.335 233.167 C 88.137 232.479,87.910 231.729,87.830 231.500 C 87.693 231.105,87.566 230.620,86.829 227.667 C 86.278 225.458,86.028 224.300,85.592 221.917 C 85.357 220.633,85.093 219.208,85.005 218.750 C 84.264 214.864,83.529 206.567,83.510 201.875 L 83.500 199.500 76.391 199.500 L 69.282 199.500 69.391 202.792 C 69.503 206.182,69.536 206.732,69.837 210.417 C 70.106 213.699,70.969 219.971,71.568 223.000 C 72.167 226.023,72.700 228.453,73.097 229.960 C 73.332 230.853,73.594 231.865,73.680 232.210 C 73.836 232.837,74.284 234.387,75.102 237.125 C 75.342 237.927,75.578 238.733,75.626 238.917 C 75.675 239.100,75.770 239.325,75.838 239.417 C 75.906 239.508,76.017 239.843,76.085 240.161 C 76.153 240.479,76.267 240.854,76.338 240.995 C 76.410 241.135,76.785 242.150,77.174 243.250 C 77.562 244.350,77.974 245.475,78.089 245.750 C 78.204 246.025,78.654 247.112,79.088 248.167 C 80.403 251.357,81.285 253.279,82.992 256.667 C 84.867 260.389,85.410 261.414,85.542 261.472 C 85.610 261.503,85.667 261.604,85.667 261.697 C 85.667 262.042,88.368 266.505,90.923 270.380 C 93.534 274.341,94.709 275.955,97.988 280.083 C 102.283 285.492,109.037 292.566,113.822 296.667 C 114.411 297.171,115.011 297.696,115.156 297.833 C 115.381 298.047,117.391 299.699,118.399 300.499 C 118.572 300.637,118.947 300.943,119.232 301.180 C 119.767 301.624,121.577 302.998,122.399 303.583 C 122.656 303.767,123.328 304.260,123.892 304.679 C 124.908 305.434,125.847 306.076,128.417 307.774 C 129.150 308.258,129.841 308.732,129.951 308.827 C 130.062 308.922,130.191 309.000,130.237 309.000 C 130.313 309.000,131.196 309.538,133.917 311.244 C 134.375 311.531,134.938 311.857,135.167 311.969 C 135.396 312.080,135.883 312.343,136.250 312.553 C 138.240 313.693,145.004 317.167,145.233 317.167 C 145.319 317.167,147.800 318.287,148.208 318.510 C 148.368 318.597,149.268 318.971,150.208 319.340 C 151.148 319.709,152.067 320.081,152.250 320.168 C 153.366 320.695,159.341 322.769,162.083 323.582 C 162.908 323.826,163.771 324.095,164.000 324.179 C 165.775 324.832,173.254 326.525,177.947 327.337 C 192.072 329.780,209.293 329.681,222.667 327.081 C 223.490 326.921,225.606 326.499,226.750 326.267 C 230.028 325.602,239.139 323.098,240.417 322.511 C 240.600 322.427,241.257 322.201,241.878 322.009 C 249.821 319.553,262.880 313.059,271.250 307.403 C 274.190 305.416,274.919 304.914,275.105 304.750 C 275.208 304.658,275.459 304.471,275.662 304.333 C 276.974 303.445,281.371 299.975,283.904 297.829 C 288.563 293.883,294.401 288.003,298.696 282.929 C 299.001 282.569,299.479 282.007,299.758 281.679 C 300.038 281.351,300.523 280.746,300.837 280.333 C 301.151 279.921,301.451 279.546,301.505 279.500 C 301.558 279.454,301.822 279.117,302.092 278.750 C 302.362 278.384,302.722 277.934,302.892 277.750 C 303.062 277.567,303.322 277.229,303.469 277.000 C 303.616 276.771,304.047 276.171,304.425 275.667 C 306.209 273.291,309.769 267.948,311.087 265.667 C 311.272 265.346,311.704 264.611,312.045 264.033 C 312.387 263.455,312.667 262.947,312.667 262.904 C 312.667 262.862,312.841 262.547,313.055 262.205 C 313.882 260.879,316.391 256.016,317.331 253.917 C 317.810 252.847,318.367 251.615,318.802 250.667 C 318.991 250.254,319.341 249.429,319.580 248.833 C 319.819 248.237,320.085 247.600,320.170 247.417 C 320.718 246.237,322.876 240.119,323.579 237.750 C 323.824 236.925,324.093 236.100,324.177 235.917 C 324.432 235.362,325.758 230.103,326.489 226.750 C 326.689 225.833,326.922 224.783,327.006 224.417 C 327.510 222.235,328.152 217.797,328.828 211.833 C 329.125 209.211,329.473 201.086,329.403 198.417 C 329.308 194.835,329.006 189.003,328.825 187.250 C 328.435 183.484,327.736 178.483,327.264 176.083 C 327.138 175.442,326.950 174.467,326.847 173.917 C 326.638 172.799,326.617 172.709,325.658 168.750 C 325.280 167.192,324.783 165.279,324.553 164.500 C 323.752 161.793,323.690 161.580,323.502 160.917 C 323.265 160.080,321.690 155.422,321.417 154.750 C 321.305 154.475,320.897 153.425,320.511 152.417 C 320.124 151.408,319.743 150.433,319.664 150.250 C 319.585 150.067,319.247 149.279,318.913 148.500 C 317.778 145.852,317.100 144.421,315.280 140.833 C 313.402 137.132,313.262 136.870,312.572 135.750 C 312.346 135.383,312.093 134.925,312.010 134.732 C 311.696 134.000,306.857 126.328,306.502 126.000 C 306.453 125.954,306.113 125.473,305.748 124.931 C 305.219 124.146,302.672 120.691,302.051 119.916 C 301.977 119.824,301.468 119.186,300.920 118.499 C 300.372 117.812,299.760 117.063,299.561 116.833 C 299.362 116.604,298.694 115.817,298.078 115.083 C 294.066 110.311,287.383 103.698,282.833 100.000 C 282.329 99.590,281.879 99.209,281.833 99.154 C 280.610 97.673,268.853 89.560,264.167 86.963 C 263.754 86.734,263.117 86.377,262.750 86.169 C 259.216 84.163,252.634 80.960,249.667 79.803 C 248.979 79.535,248.267 79.249,248.083 79.167 C 243.236 77.003,232.651 73.802,226.083 72.515 C 225.167 72.335,223.967 72.100,223.417 71.992 C 220.621 71.445,216.424 70.853,212.833 70.500 C 211.871 70.405,210.334 70.252,209.418 70.160 C 208.502 70.068,205.895 69.944,203.626 69.886 L 199.500 69.780 199.500 76.493 M195.900 99.360 C 194.058 99.420,191.996 99.548,191.317 99.643 C 190.639 99.739,189.521 99.864,188.833 99.920 C 187.575 100.024,184.129 100.523,182.583 100.825 C 179.431 101.441,174.498 102.595,172.917 103.086 C 172.550 103.199,171.237 103.607,170.000 103.990 C 168.762 104.374,167.450 104.805,167.083 104.948 C 166.717 105.090,166.267 105.263,166.083 105.331 C 158.695 108.089,152.280 111.300,145.909 115.430 C 144.446 116.379,141.102 118.731,140.727 119.076 C 140.622 119.172,140.327 119.400,140.071 119.583 C 137.546 121.388,133.441 124.954,130.250 128.116 C 126.490 131.841,123.947 134.743,120.859 138.833 C 119.925 140.071,118.993 141.299,118.789 141.563 C 118.584 141.827,118.312 142.240,118.184 142.480 C 118.056 142.720,117.905 142.954,117.847 143.000 C 117.790 143.046,117.408 143.608,117.000 144.250 C 116.592 144.892,116.214 145.454,116.161 145.500 C 115.500 146.075,110.437 155.590,109.022 158.917 C 108.632 159.833,108.247 160.733,108.166 160.917 C 105.391 167.190,102.568 177.501,101.572 185.000 C 100.084 196.199,100.322 207.920,102.235 217.583 C 102.362 218.225,102.553 219.200,102.660 219.750 C 102.892 220.940,103.438 223.348,103.662 224.167 C 105.162 229.653,106.781 234.481,108.163 237.583 C 108.245 237.767,108.664 238.742,109.094 239.750 C 111.758 245.992,116.923 254.700,121.071 259.941 C 121.444 260.413,122.125 261.276,122.583 261.858 C 123.042 262.440,123.612 263.142,123.852 263.417 C 124.091 263.692,124.873 264.592,125.589 265.417 C 127.169 267.236,132.113 272.191,133.828 273.674 C 134.512 274.266,135.225 274.891,135.411 275.063 C 136.072 275.675,140.439 279.106,141.917 280.176 C 143.507 281.326,146.828 283.529,148.179 284.329 C 148.415 284.469,149.128 284.892,149.763 285.270 C 152.320 286.791,156.158 288.770,159.583 290.334 C 162.399 291.619,167.333 293.493,170.167 294.353 C 170.762 294.534,171.625 294.797,172.083 294.938 C 174.260 295.606,179.128 296.767,181.829 297.262 C 184.675 297.783,186.237 297.996,192.333 298.693 C 194.968 298.994,206.375 298.992,209.083 298.691 C 217.852 297.713,219.398 297.454,225.667 295.909 C 230.151 294.804,235.751 293.009,238.449 291.810 C 238.834 291.640,239.197 291.500,239.256 291.500 C 239.315 291.500,239.849 291.275,240.443 291.000 C 241.037 290.725,241.554 290.500,241.591 290.500 C 241.826 290.500,247.277 287.831,249.083 286.831 C 249.633 286.527,250.384 286.114,250.752 285.914 C 253.139 284.619,259.327 280.586,260.917 279.289 C 261.008 279.215,261.658 278.719,262.359 278.187 C 263.061 277.656,263.760 277.097,263.913 276.944 C 264.066 276.792,264.241 276.665,264.304 276.663 C 264.366 276.661,264.688 276.417,265.019 276.121 C 265.350 275.825,266.137 275.133,266.767 274.583 C 269.042 272.598,269.787 271.896,272.083 269.575 C 274.542 267.089,274.875 266.733,276.762 264.572 C 278.727 262.323,282.092 257.968,283.275 256.144 C 283.535 255.744,283.788 255.379,283.838 255.333 C 283.994 255.190,286.426 251.321,287.295 249.833 C 288.867 247.141,290.774 243.454,291.827 241.073 C 292.027 240.620,292.291 240.025,292.414 239.750 C 292.538 239.475,292.911 238.575,293.244 237.750 C 293.577 236.925,293.919 236.100,294.004 235.917 C 294.568 234.693,296.666 228.346,297.173 226.333 C 298.262 222.001,298.707 220.024,299.141 217.583 C 299.679 214.556,299.809 213.668,299.999 211.750 C 300.099 210.742,300.255 209.354,300.347 208.667 C 300.439 207.979,300.560 205.635,300.617 203.458 L 300.719 199.500 295.526 199.500 C 291.484 199.500,290.333 199.546,290.331 199.708 C 290.315 201.282,290.120 205.255,290.001 206.417 C 289.917 207.242,289.799 208.479,289.740 209.167 C 289.380 213.361,287.926 220.625,286.553 225.083 C 286.194 226.250,285.023 229.757,284.842 230.209 C 284.760 230.415,284.413 231.296,284.072 232.167 C 283.522 233.572,283.143 234.495,282.670 235.583 C 282.251 236.548,279.756 241.587,279.162 242.667 C 276.517 247.480,271.933 254.091,268.819 257.583 C 268.573 257.858,267.979 258.533,267.497 259.083 C 265.504 261.360,261.875 264.953,259.411 267.089 C 256.267 269.815,254.447 271.228,250.917 273.686 C 249.823 274.448,246.308 276.658,245.250 277.249 C 244.792 277.505,244.042 277.930,243.583 278.193 C 242.590 278.764,237.826 281.149,236.998 281.489 C 236.678 281.621,235.934 281.946,235.345 282.213 C 233.130 283.214,228.334 284.935,225.750 285.656 C 215.280 288.578,207.186 289.551,196.667 289.154 C 194.329 289.066,192.304 288.959,192.167 288.918 C 192.029 288.876,190.942 288.729,189.750 288.592 C 172.804 286.645,155.715 279.223,142.917 268.254 C 142.275 267.704,141.525 267.067,141.250 266.838 C 140.082 265.867,133.642 259.286,132.438 257.833 C 131.717 256.962,130.967 256.061,130.772 255.831 C 127.046 251.432,121.910 243.105,119.164 237.011 C 117.194 232.642,116.621 231.093,114.502 224.417 C 111.457 214.819,110.235 199.435,111.683 188.917 C 111.958 186.921,112.650 182.687,112.840 181.833 C 113.762 177.699,114.401 175.296,115.433 172.083 C 117.196 166.596,120.347 159.577,123.103 155.000 C 123.241 154.771,123.396 154.452,123.446 154.292 C 123.497 154.131,123.605 154.000,123.686 154.000 C 123.767 154.000,123.833 153.929,123.833 153.843 C 123.833 153.578,125.142 151.562,127.411 148.333 C 133.627 139.487,141.146 132.048,150.250 125.738 C 152.311 124.309,155.215 122.483,156.376 121.885 C 156.857 121.638,157.533 121.261,157.879 121.046 C 158.226 120.832,159.538 120.143,160.796 119.516 C 162.963 118.434,163.753 118.063,165.500 117.302 C 165.912 117.123,166.486 116.869,166.775 116.738 C 167.064 116.607,167.353 116.500,167.417 116.500 C 167.481 116.500,167.769 116.398,168.058 116.273 C 173.282 114.011,181.607 111.822,188.417 110.918 C 192.904 110.323,193.137 110.305,198.917 110.096 L 200.583 110.036 200.627 104.594 L 200.671 99.153 199.961 99.201 C 199.570 99.228,197.743 99.299,195.900 99.360 M195.941 127.671 C 188.841 128.051,181.967 129.489,175.000 132.052 C 171.464 133.352,167.018 135.438,163.854 137.281 C 162.135 138.283,158.060 140.933,157.696 141.287 C 157.574 141.405,157.124 141.738,156.696 142.028 C 152.592 144.802,145.762 151.641,142.017 156.726 C 139.306 160.408,137.545 163.249,135.544 167.167 C 127.722 182.487,125.628 201.757,130.059 217.667 C 130.199 218.171,130.420 218.998,130.550 219.505 C 130.828 220.589,132.489 225.508,132.659 225.750 C 132.723 225.842,132.912 226.292,133.079 226.750 C 134.002 229.288,136.411 234.059,138.548 237.583 C 138.659 237.767,138.787 237.954,138.833 238.000 C 138.879 238.046,139.358 238.755,139.898 239.575 C 143.714 245.373,149.038 251.192,154.754 255.811 C 154.939 255.961,155.539 256.421,156.087 256.833 C 156.635 257.245,157.121 257.620,157.167 257.667 C 157.212 257.713,157.587 257.976,158.000 258.250 C 158.412 258.524,158.787 258.788,158.833 258.836 C 159.042 259.053,161.930 260.895,163.624 261.893 C 169.738 265.493,177.780 268.672,184.167 270.014 C 189.162 271.063,192.890 271.539,197.792 271.754 L 200.333 271.865 200.333 268.115 L 200.333 264.365 198.542 264.264 C 190.377 263.804,183.728 262.550,178.583 260.501 C 178.400 260.428,177.875 260.237,177.417 260.075 C 176.958 259.914,176.208 259.616,175.750 259.413 C 175.292 259.211,174.579 258.904,174.167 258.731 C 171.816 257.750,167.578 255.417,164.459 253.388 C 159.090 249.896,153.271 244.422,148.938 238.789 C 147.952 237.507,145.000 233.243,145.000 233.101 C 145.000 233.072,144.614 232.381,144.142 231.566 C 141.888 227.671,139.647 222.452,138.426 218.250 C 138.186 217.425,137.921 216.525,137.837 216.250 C 137.234 214.276,136.416 209.868,135.965 206.167 C 135.717 204.129,135.719 195.067,135.968 193.000 C 137.220 182.596,140.260 173.547,145.066 165.917 C 145.585 165.092,146.054 164.285,146.108 164.125 C 146.162 163.965,146.260 163.833,146.326 163.833 C 146.392 163.833,146.529 163.653,146.630 163.432 C 146.885 162.871,149.820 159.022,151.216 157.417 C 160.921 146.255,172.505 139.564,188.000 136.168 C 192.768 135.123,203.539 134.762,208.000 135.498 C 208.596 135.596,209.796 135.785,210.667 135.918 C 214.325 136.478,220.527 138.085,222.583 139.007 C 222.767 139.089,223.755 139.493,224.780 139.905 C 233.466 143.394,242.834 150.074,248.753 157.000 C 253.585 162.655,257.676 169.209,259.986 175.000 C 260.187 175.504,260.421 176.067,260.507 176.250 C 260.748 176.765,261.744 179.749,262.233 181.417 C 262.474 182.242,262.738 183.142,262.819 183.417 C 262.900 183.692,263.127 184.667,263.324 185.583 C 263.521 186.500,263.748 187.512,263.828 187.833 C 263.908 188.154,264.058 189.129,264.160 190.000 C 264.262 190.871,264.422 192.078,264.517 192.683 C 264.611 193.288,264.740 195.125,264.802 196.766 L 264.917 199.750 268.583 199.750 L 272.250 199.750 272.302 198.000 C 272.440 193.378,271.225 184.899,269.748 180.167 C 269.619 179.754,269.317 178.779,269.076 178.000 C 266.818 170.707,262.307 161.871,258.227 156.750 C 258.008 156.475,257.773 156.175,257.706 156.083 C 257.002 155.125,256.566 154.552,256.423 154.396 C 256.328 154.293,255.950 153.845,255.583 153.400 C 241.254 136.011,219.049 126.432,195.941 127.671 " stroke="none" fill="#4d4d4d" fill-rule="evenodd"></path><path id="path3" d="" stroke="none" fill="#666666" fill-rule="evenodd"></path><path id="path4" d="" stroke="none" fill="#808080" fill-rule="evenodd"></path></g></svg>